<svg width="16" height="28" xmlns="http://www.w3.org/2000/svg"><g fill="none" fill-rule="evenodd"><path fill="#1463FF" d="M0 21.002L11.957 28 12 14.033 0 7.127z"/><path fill="#3800C9" d="M12.043 13.92L12 28l3.957-2.209L16 11.71z"/><path fill="#6FA0FF" d="M0 7.3l12.163 6.955L16 12.046 3.837 5.091z"/><path d="M6.086 14.235c-.748-.43-1.356-.085-1.359.773-.002.62.314 1.335.77 1.848l-.49 3.346c-.023.152.087.362.232.446l1.656.954c.144.083.255 0 .235-.176l-.47-3.9c.5.016.832-.403.77-1.13-.065-.755-.565-1.623-1.188-2.061a2.047 2.047 0 0 0-.156-.1" fill="#060E3F"/><path d="M4.888 3.437c.001-.337.12-.574.313-.685l1.616-.937c-.193.111-.312.348-.313.685L6.49 7.3l-1.615.937.013-4.8z" fill="#6A8299"/><path d="M5.968 1.334C4.66.58 3.592 1.187 3.588 2.687l-.014 4.8 1.3.75.014-4.8c.002-.678.485-.952 1.076-.611l2.464 1.42c.59.34 1.07 1.168 1.068 1.845l-.014 4.8 1.301.75.014-4.8c.004-1.5-1.057-3.334-2.365-4.088l-2.464-1.42z" fill="#D6DEE7"/><path d="M5.896.233c.432-.25 1.03-.216 1.688.164l2.464 1.42c1.308.753 2.369 2.587 2.364 4.087l-.013 4.8-1.616.937.014-4.8c.004-1.5-1.056-3.334-2.365-4.088l-2.464-1.42C5.31.955 4.712.92 4.281 1.17L5.896.233z" fill="#6C7D8D"/></g></svg>