<svg width="81" height="60" xmlns="http://www.w3.org/2000/svg"><g fill="none" fill-rule="evenodd"><path fill-opacity=".19" fill="#035D38" style="mix-blend-mode:multiply" d="M29.118 12.887L.609 29.401 52.3 59.54l28.509-16.514z"/><path fill="#04B76D" d="M30.1.465L4.01 15.58l47.306 27.58 26.091-15.113z"/><path fill="#01995A" d="M4.064 28.76l47.307 27.583-.055-13.182L4.01 15.58z"/><path fill="#03824D" d="M51.316 43.161l.055 13.182L77.46 41.23l-.054-13.182z"/><path d="M13.248 18.156l33.643 19.68c2.487-1.44 6.506-1.44 8.977.001l12.289-7.119c-2.471-1.44-2.458-3.776.03-5.217L34.543 5.821c-2.488 1.44-6.507 1.44-8.978 0l-12.289 7.118c2.472 1.44 2.458 3.776-.03 5.217" fill="#3ED98E"/><path d="M56.08 32.603h.001c.967 0 1.912-.227 2.593-.622.661-.383 1.04-.904 1.041-1.43.001-.522-.372-1.04-1.023-1.419-.677-.395-1.62-.621-2.586-.621-.967 0-1.912.226-2.594.621-.66.383-1.04.904-1.04 1.43 0 .522.372 1.04 1.024 1.42.677.394 1.619.62 2.585.62M24.648 14.38c.967 0 1.912-.227 2.594-.622.66-.383 1.04-.904 1.04-1.43.001-.522-.372-1.04-1.023-1.419-.677-.395-1.62-.621-2.586-.621-.966 0-1.912.226-2.594.621-.66.383-1.04.904-1.04 1.43 0 .522.372 1.04 1.024 1.42.677.394 1.619.62 2.585.62" fill="#04B76D"/><path d="M35.647 21.03l.414-.242 2.122 1.23-.518.302c-.568.331-.9.549-.993.653-.092.108-.055.208.111.305.145.083.3.118.464.102.166-.014.344-.078.533-.188.472-.276.779-.492.915-.648.138-.157.132-.42-.018-.785-.243-.61-.39-1.038-.432-1.285-.042-.244.022-.518.199-.818.173-.298.48-.575.914-.828a3.967 3.967 0 0 1 2.022-.553c.715 0 1.478.183 2.278.55l.675-.393.977.566-.675.393c.572.427.843.84.816 1.234-.025.395-.351.774-.974 1.137a8.231 8.231 0 0 1-.418.22l-2.123-1.23.35-.204c.372-.217.59-.373.656-.47.066-.094.018-.188-.143-.281a.679.679 0 0 0-.44-.083 1.476 1.476 0 0 0-.544.205c-.33.192-.495.365-.494.52-.001.152.119.523.373 1.114.217.5.333.859.36 1.072.024.215-.055.451-.235.714-.182.262-.504.53-.974.804-.753.439-1.524.676-2.317.716-.794.037-1.604-.123-2.434-.488l-.793.463-.977-.566.82-.478c-.512-.361-.793-.774-.836-1.24-.048-.467.4-.973 1.339-1.52m4.275 7.73h.001c3.394 0 6.707-.796 9.086-2.184 2.29-1.334 3.6-3.152 3.598-4.987-.002-1.85-1.335-3.68-3.656-5.025-2.396-1.388-5.719-2.185-9.116-2.185-3.395 0-6.708.796-9.088 2.184-2.288 1.334-3.599 3.152-3.597 4.986.003 1.85 1.336 3.682 3.657 5.027 2.396 1.387 5.719 2.183 9.115 2.184" fill="#040000"/><path d="M30.743 27.687l.184.092c.122.063.246.125.372.185.074.035.15.069.225.103.115.053.23.106.348.156.08.035.164.069.246.103.08.032.157.067.238.098l.076.029c.259.1.521.198.787.288l.126.041c.231.077.466.15.703.219.04.011.078.025.118.037.045.013.091.024.137.036.15.042.3.081.451.12.093.024.184.048.277.07.166.04.334.077.501.113.063.014.125.03.188.043l.051.01c.152.031.306.06.46.088l.251.047c.203.035.406.066.61.096l.105.017h.006c.236.034.473.064.712.091l.162.016c.185.02.37.038.555.054l.014.001c.083.007.166.011.249.017.153.012.306.023.46.031.099.006.198.009.297.013.143.006.285.013.427.017h.035c.08.003.162.002.242.003.155.003.31.006.464.005.102 0 .204-.002.306-.004.145-.002.29-.004.434-.009l.08-.001c.068-.002.135-.007.203-.01.167-.007.335-.015.502-.025l.3-.021c.161-.012.321-.026.48-.04.057-.006.113-.009.169-.015.04-.004.078-.01.116-.013.249-.026.496-.056.742-.09l.12-.015c.284-.04.564-.085.844-.134l.079-.013.221-.044c.13-.025.26-.05.39-.077.106-.022.21-.045.315-.07a19.601 19.601 0 0 0 1.373-.354c.122-.036.243-.073.363-.111.053-.017.107-.032.16-.05.037-.011.073-.026.11-.038.22-.073.435-.149.648-.228.044-.017.09-.032.133-.048.252-.097.5-.199.743-.305.064-.027.126-.057.189-.085.187-.084.372-.17.553-.261l.202-.101a14.09 14.09 0 0 0 .868-.481c.056-.034.108-.07.163-.104a12.9 12.9 0 0 0 .761-.511 15.154 15.154 0 0 0 .455-.35 11.073 11.073 0 0 0 .42-.36l.089-.077.166-.16.06-.059a8.796 8.796 0 0 0 .623-.688.986.986 0 0 0 .051-.062l.024-.029c.028-.035.05-.07.078-.106a7.85 7.85 0 0 0 .21-.29c.036-.053.07-.107.104-.16.057-.088.112-.176.163-.265l.045-.072c.02-.036.036-.073.056-.11a6.045 6.045 0 0 0 .299-.639c.013-.034.03-.067.042-.101l.03-.092a5.617 5.617 0 0 0 .182-.632l.029-.119c.005-.026.008-.052.012-.08.014-.074.025-.148.035-.224a4.612 4.612 0 0 0 .04-.422c.004-.044.01-.087.01-.131.002-.044.002-.088.002-.131l.016-5.429c0 .088-.007.176-.011.263a4.194 4.194 0 0 1-.041.422 5.83 5.83 0 0 1-.035.225 5.962 5.962 0 0 1-.152.613 4.915 4.915 0 0 1-.144.41 7.52 7.52 0 0 1-.183.415 6.027 6.027 0 0 1-.217.406 7.244 7.244 0 0 1-.162.264c-.035.054-.069.108-.105.161a7.37 7.37 0 0 1-.21.29c-.034.044-.066.09-.101.135l-.05.061a8.6 8.6 0 0 1-.244.286l-.069.078c-.1.109-.202.218-.311.325l-.06.058a8.958 8.958 0 0 1-.47.426 9.525 9.525 0 0 1-.66.521c-.083.06-.168.12-.253.178-.078.054-.157.109-.238.162-.087.057-.179.114-.27.171-.114.071-.227.143-.346.212-.222.13-.452.253-.685.373-.067.035-.135.068-.203.102-.181.09-.365.177-.552.26l-.19.086c-.243.106-.49.208-.742.304l-.134.049a19.63 19.63 0 0 1-1.96.614l-.314.08c-.125.03-.252.059-.379.087-.105.024-.21.048-.316.07a20.51 20.51 0 0 1-.39.076 23.707 23.707 0 0 1-1.144.191c-.038.007-.08.011-.12.017a26.251 26.251 0 0 1-1.505.156l-.302.021c-.167.01-.334.018-.5.025l-.285.012c-.144.004-.29.007-.435.009l-.304.004c-.156 0-.312-.003-.468-.005-.091-.001-.182-.001-.273-.004-.143-.004-.287-.01-.43-.017-.098-.004-.196-.006-.295-.012-.153-.008-.307-.02-.46-.032-.087-.006-.175-.01-.262-.018a24.37 24.37 0 0 1-.556-.054l-.162-.016a23.965 23.965 0 0 1-.712-.09c-.04-.005-.078-.012-.118-.019-.201-.029-.402-.06-.602-.095-.084-.014-.168-.031-.252-.047-.153-.028-.307-.056-.46-.088a25.347 25.347 0 0 1-.74-.166c-.093-.022-.184-.046-.275-.07a20.184 20.184 0 0 1-.453-.12l-.255-.072a20 20 0 0 1-.704-.22l-.124-.04a18.773 18.773 0 0 1-1.102-.416c-.083-.034-.165-.067-.246-.102-.117-.05-.232-.104-.347-.156-.076-.035-.152-.068-.226-.104a16.1 16.1 0 0 1-.372-.184c-.061-.032-.123-.061-.183-.093a15.25 15.25 0 0 1-.537-.296c-2.94-1.702-4.406-3.937-4.4-6.167l-.016 5.428c-.006 2.231 1.462 4.465 4.4 6.168.176.101.355.2.537.296" fill="#E2AE44"/><path d="M51.296 21.962c5.802-3.383 5.772-8.867-.067-12.248-5.84-3.383-15.276-3.383-21.077 0-5.8 3.382-5.77 8.865.07 12.248 5.838 3.382 15.274 3.382 21.074 0" fill="#FFD278"/><path d="M40.774 22.5c3.544 0 6.974-.814 9.41-2.235 2.056-1.198 3.233-2.722 3.231-4.182-.002-1.474-1.202-3.014-3.292-4.225-2.457-1.423-5.9-2.24-9.447-2.24-3.544 0-6.975.816-9.412 2.237-2.055 1.198-3.232 2.721-3.23 4.18.002 1.475 1.203 3.015 3.294 4.227 2.456 1.423 5.898 2.239 9.446 2.239" fill="#F4BD4E"/><path d="M31.263 11.855c2.438-1.421 5.869-2.237 9.413-2.237 3.547 0 6.99.817 9.447 2.24 1.935 1.12 3.104 2.523 3.27 3.895.013-.112.022-.224.022-.335-.002-1.475-1.202-3.015-3.292-4.226-2.457-1.423-5.9-2.24-9.447-2.24-3.544 0-6.975.816-9.413 2.237-2.054 1.198-3.231 2.721-3.229 4.18 0 .11.01.22.022.33.163-1.354 1.31-2.738 3.207-3.844" fill="#CC9636"/><path fill="#E2AE44" d="M46.08 12.645l-.002.992.76-.444.004-.991zm-3.71 2.05l.01-.02c.007-.013.016-.026.024-.038l.022-.033.02-.023a.838.838 0 0 1 .093-.096 1.48 1.48 0 0 1 .123-.1l.02-.014a2.26 2.26 0 0 1 .217-.14c.064-.037.125-.069.186-.098a.66.66 0 0 1 .056-.023 1.499 1.499 0 0 1 .28-.093c.03-.006.06-.014.091-.017a.88.88 0 0 1 .134-.008h.001a.813.813 0 0 1 .123.013l.007.002a.743.743 0 0 1 .109.03l.013.005a.784.784 0 0 1 .11.052.566.566 0 0 1 .144.112.176.176 0 0 1 .049.113l.002-.991c0-.076-.064-.151-.193-.225a.74.74 0 0 0-.102-.05l-.007-.003c-.005-.002-.01-.002-.013-.004a.725.725 0 0 0-.1-.03h-.01l-.006-.002-.032-.006-.045-.004a.567.567 0 0 0-.154.001l-.027.003a1.093 1.093 0 0 0-.055.009c-.012.002-.025.007-.037.01a1.223 1.223 0 0 0-.095.023c-.01.004-.021.005-.033.009l-.03.011c-.04.014-.08.03-.121.048l-.057.025a2.181 2.181 0 0 0-.24.13l-.022.014a2.335 2.335 0 0 0-.14.093l-.02.014a1.463 1.463 0 0 0-.123.1l-.013.01a.918.918 0 0 0-.08.086l-.015.015-.005.008-.022.032-.019.029-.005.01a.857.857 0 0 0-.01.02l-.01.024c-.003.007-.004.015-.006.022l-.005.015-.002.01a.225.225 0 0 0-.006.042v.009l-.002.99c0-.02.002-.04.007-.06l.005-.015a.371.371 0 0 1 .017-.046m3.773 1.462c.006-.003.01-.007.014-.01.064-.043.124-.087.18-.13l.044-.034c.056-.044.109-.088.157-.133l.005-.005.018-.018c.044-.042.084-.084.12-.126.013-.013.024-.027.035-.04l.033-.038c.012-.015.02-.03.03-.046.024-.032.046-.064.065-.096l.023-.033v-.008.008c.009-.017.014-.032.022-.048a.886.886 0 0 0 .034-.074l.017-.034.016-.057c.006-.021.013-.042.018-.064l.008-.026a1.01 1.01 0 0 0 .017-.15v-.026l.003-.992a.826.826 0 0 1-.025.203l-.018.064a1.126 1.126 0 0 1-.177.342c-.02.028-.04.056-.063.084l-.035.04a2.016 2.016 0 0 1-.12.125l-.018.019a2.776 2.776 0 0 1-.206.172 3.48 3.48 0 0 1-.18.13l-.014.01a4.47 4.47 0 0 1-.437.257c-.078.042-.171.09-.279.143l-.003.991c.216-.107.372-.19.472-.248l.08-.047a5.86 5.86 0 0 0 .164-.105"/><path fill="#CC9636" d="M43.038 14.18l-.003.99 2.393 1.387.003-.99zm-3.542 1.685l-.003.991c0-.151-.044-.335-.132-.55-.275-.689-.439-1.17-.487-1.449a.975.975 0 0 1-.014-.17l.003-.99c0 .057.004.114.014.169.048.278.213.76.486 1.449.089.215.133.399.133.55"/><path d="M37.1 17.675a1.353 1.353 0 0 1 .132-.115l.014-.01a4.485 4.485 0 0 1 .3-.203l.047-.03c.065-.042.136-.086.214-.134l.126-.075.067-.04.22-.13.584-.34.003-.991-.584.34-.22.13-.068.04-.115.07c-.004.002-.007.003-.01.006-.078.047-.15.091-.215.133l-.047.03c-.049.03-.093.06-.134.088l-.047.03a3.83 3.83 0 0 0-.131.095 1.236 1.236 0 0 0-.1.081l-.033.033-.01.013a.233.233 0 0 0-.022.034l-.007.014-.003.006-.004.007a.122.122 0 0 0-.006.026.104.104 0 0 0-.003.023v.004l-.003.991c0-.02.005-.04.013-.06l.003-.006c.01-.02.022-.04.04-.06" fill="#E2AE44"/><path d="M35.379 18.595l.002-.991c-.578-.407-.894-.873-.943-1.399a.745.745 0 0 1-.004-.078l-.003.99c0 .027.001.053.004.08.049.525.365.991.944 1.398m.179.185l-.003.992.894-.521.003-.992z" fill="#CC9636"/><path fill="#E2AE44" d="M34.456 18.143l-.002.991 1.1.638.004-.991z"/><path d="M38.223 15.947l.584-.34-2.393-1.387-.467.272c-1.058.617-1.563 1.188-1.51 1.713.05.526.366.992.944 1.399l-.924.539 1.1.638.895-.522c.935.412 1.849.592 2.743.55.894-.044 1.764-.312 2.613-.807.53-.309.893-.61 1.097-.907.204-.295.293-.562.266-.804-.03-.241-.161-.644-.406-1.21-.286-.665-.422-1.083-.42-1.255-.002-.174.185-.37.557-.586a1.66 1.66 0 0 1 .613-.232.77.77 0 0 1 .497.095c.18.104.234.21.16.316-.074.11-.32.286-.74.53l-.394.23 2.393 1.387c.215-.107.372-.19.472-.248.702-.41 1.07-.837 1.098-1.282.03-.443-.275-.91-.92-1.39l.76-.444-1.1-.638-.761.444c-.903-.416-1.762-.622-2.57-.622-.81.002-1.569.21-2.279.624-.489.286-.835.598-1.03.934-.199.338-.272.647-.224.922.048.278.212.76.486 1.45.17.41.177.706.02.883-.152.177-.498.42-1.031.73a1.455 1.455 0 0 1-.6.213.86.86 0 0 1-.523-.115c-.188-.109-.23-.222-.126-.344.105-.117.48-.363 1.12-.736" fill="#070100"/><path d="M36.897 19.428a4.99 4.99 0 0 0 .337.113l.111.035c.02.006.04.009.059.015.106.029.212.054.317.078l.07.017.022.004c.082.017.165.03.248.043.032.006.065.013.098.017l.01.002c.044.006.087.009.131.014.063.007.126.016.189.021l.015.001.117.007c.061.003.122.008.182.01h.028l.142-.001h.152l.067-.004c.088-.004.175-.01.263-.02l.03-.003a5.62 5.62 0 0 0 .383-.054c.003 0 .006 0 .009-.002.03-.005.061-.013.091-.02.081-.015.163-.031.243-.051l.13-.036c.07-.02.14-.038.21-.06l.032-.01c.05-.016.098-.035.148-.052.045-.016.09-.03.135-.048a5.04 5.04 0 0 0 .19-.077c.042-.018.083-.034.124-.053.07-.031.14-.065.21-.1.034-.017.07-.032.103-.05a6.563 6.563 0 0 0 .419-.234l.037-.023.115-.074.076-.05c.037-.024.073-.05.108-.075l.065-.046.109-.085.047-.036c.049-.04.095-.08.138-.12l.002-.002.016-.017c.036-.034.07-.068.102-.102.014-.014.025-.027.037-.041a2 2 0 0 0 .067-.078c.004-.005.01-.01.013-.015a2.04 2.04 0 0 0 .161-.244l.006-.012a1.56 1.56 0 0 0 .094-.199l.001-.002c.022-.058.038-.114.049-.17v-.01a.806.806 0 0 0 .017-.138v-.02l.003-.992a.858.858 0 0 1-.016.159l-.001.01a1.075 1.075 0 0 1-.05.172 1.594 1.594 0 0 1-.094.2 2.144 2.144 0 0 1-.18.27c-.02.026-.044.052-.067.078l-.036.041c-.033.035-.068.07-.105.104l-.016.017c-.043.04-.09.08-.138.12l-.046.036a3.215 3.215 0 0 1-.176.132c-.034.024-.07.05-.107.074l-.076.05a4.98 4.98 0 0 1-.116.073 6.815 6.815 0 0 1-.455.257c-.034.019-.068.034-.103.051-.07.034-.14.069-.21.1-.041.019-.083.035-.124.052-.064.027-.127.054-.19.078l-.136.048-.179.062-.21.06c-.044.012-.087.025-.13.035-.08.02-.162.037-.243.053-.033.007-.066.015-.1.02a5.634 5.634 0 0 1-.676.078c-.073.004-.146.003-.22.004h-.141c-.07 0-.14-.006-.21-.01l-.118-.006c-.067-.005-.134-.014-.2-.022-.046-.005-.09-.008-.135-.015l-.105-.018a5.982 5.982 0 0 1-.25-.043c-.03-.007-.06-.015-.092-.021a6.712 6.712 0 0 1-.487-.128l-.142-.044-.196-.069-.138-.05a7.4 7.4 0 0 1-.308-.127h-.001l-.003.99c.088.04.176.076.263.11.015.007.03.011.046.017.046.018.092.034.139.051" fill="#E2AE44"/><path d="M51.296 22.66c2.889-1.763 4.33-4.072 4.33-6.382v-.052c0-.054-.004-.107-.007-.16l-.002.077a4.194 4.194 0 0 1-.041.422 5.83 5.83 0 0 1-.035.225 5.962 5.962 0 0 1-.152.613 4.915 4.915 0 0 1-.144.41 8.062 8.062 0 0 1-.183.415 5.699 5.699 0 0 1-.217.406 7.665 7.665 0 0 1-.162.264c-.035.054-.069.108-.105.161a7.37 7.37 0 0 1-.21.29c-.034.044-.066.09-.101.135l-.05.062a8.6 8.6 0 0 1-.244.285l-.069.078c-.1.11-.202.218-.311.325l-.06.058a9.69 9.69 0 0 1-.676.597c-.076.062-.155.123-.234.184-.072.055-.145.111-.22.166a12.442 12.442 0 0 1-.49.34c-.088.057-.18.114-.27.171-.115.071-.228.143-.347.212-.222.13-.452.253-.685.373l-.203.102c-.181.09-.365.177-.552.26l-.19.086c-.243.106-.49.208-.742.304l-.134.049a18.612 18.612 0 0 1-1.59.515l-.37.1c-.104.026-.208.053-.314.078a19.554 19.554 0 0 1-.695.158 20.51 20.51 0 0 1-.39.076 23.707 23.707 0 0 1-1.144.191c-.038.007-.08.011-.12.016a24.65 24.65 0 0 1-1.505.157l-.302.021c-.167.01-.334.018-.5.025l-.285.012c-.144.004-.29.007-.435.009l-.304.004c-.156 0-.312-.002-.468-.005-.091-.001-.182-.001-.273-.004-.143-.004-.287-.01-.43-.017l-.295-.012c-.153-.008-.307-.02-.46-.032-.087-.006-.175-.01-.262-.018a20.504 20.504 0 0 1-.556-.054l-.162-.016a23.965 23.965 0 0 1-.712-.09c-.04-.005-.078-.012-.118-.018-.201-.03-.402-.061-.602-.096-.084-.014-.168-.031-.252-.047-.153-.028-.307-.056-.46-.088a25.346 25.346 0 0 1-.74-.166c-.093-.022-.184-.046-.275-.069a20.184 20.184 0 0 1-.453-.12l-.255-.073a20 20 0 0 1-.704-.22l-.124-.04a18.773 18.773 0 0 1-1.102-.416c-.083-.034-.165-.067-.246-.102-.117-.05-.232-.104-.347-.156-.076-.035-.152-.068-.226-.104a12.88 12.88 0 0 1-.372-.185c-.061-.03-.123-.06-.183-.092a15.25 15.25 0 0 1-.537-.296c-2.846-1.648-4.308-3.795-4.392-5.955-.091 2.4 1.371 4.821 4.392 6.653 5.838 3.542 15.274 3.542 21.074 0" fill="#BD8D2D"/><path d="M34.314 22.526c.06.032.123.061.183.092a14.306 14.306 0 0 0 .598.289c.115.052.23.105.347.156.081.035.164.068.246.102.08.033.158.067.239.099.024.01.05.018.076.028.258.101.52.198.787.289l.125.04c.232.077.466.15.704.22.039.01.077.025.117.036l.138.037.45.12.277.07c.167.04.334.077.502.113.063.013.124.03.187.042l.052.01c.152.032.306.06.46.088.084.015.167.033.251.047.203.035.406.067.61.096l.105.017h.005c.237.035.474.065.713.091l.162.016a24.329 24.329 0 0 0 .569.056c.082.007.165.01.248.017.153.011.307.022.46.03.1.006.198.009.298.013.142.007.284.013.427.017l.035.001c.08.002.161.002.242.003.155.002.31.005.463.005.103 0 .204-.003.306-.004.145-.003.29-.005.435-.01h.08c.068-.003.135-.008.202-.01.168-.008.335-.016.502-.026l.302-.021c.16-.012.32-.026.48-.04.055-.005.111-.008.168-.015.039-.003.077-.01.116-.013.248-.026.496-.055.742-.089l.12-.015c.283-.04.564-.085.843-.135l.08-.013c.073-.013.147-.03.22-.044a20.608 20.608 0 0 0 2.442-.612l.159-.049.111-.039c.219-.073.434-.148.647-.228.045-.016.09-.031.134-.048.251-.096.5-.198.743-.304.064-.028.126-.057.188-.086.188-.083.372-.17.553-.26.068-.034.136-.067.203-.102.233-.12.463-.243.686-.373l.181-.108c.057-.034.109-.07.163-.104a11.801 11.801 0 0 0 1.217-.86 11.073 11.073 0 0 0 .42-.36l.088-.078c.058-.053.112-.107.167-.16l.06-.058a9.181 9.181 0 0 0 .623-.689l.051-.061.024-.03c.027-.035.05-.07.077-.106a7.85 7.85 0 0 0 .21-.29c.037-.052.07-.106.105-.16.056-.088.112-.176.163-.265l.045-.072c.02-.036.036-.073.056-.109a6.833 6.833 0 0 0 .203-.413c.033-.076.065-.151.095-.226.014-.035.03-.068.042-.102.012-.03.02-.061.03-.092a6.54 6.54 0 0 0 .13-.414 5.31 5.31 0 0 0 .052-.218l.03-.118c.005-.026.007-.053.012-.08a5.13 5.13 0 0 0 .035-.224c.009-.065.018-.13.025-.196.007-.076.012-.15.015-.226.003-.044.009-.088.01-.132l.002-.131.016-5.429c0 .088-.007.176-.012.263a5.22 5.22 0 0 1-.016.226 6.23 6.23 0 0 1-.06.421 5.962 5.962 0 0 1-.152.613 5.607 5.607 0 0 1-.543 1.231 6.464 6.464 0 0 1-.163.265c-.034.053-.068.107-.104.16a7.354 7.354 0 0 1-.21.29c-.035.045-.066.09-.102.135l-.05.062c-.078.096-.16.191-.243.286l-.07.077c-.099.11-.202.218-.31.325l-.06.058a9.659 9.659 0 0 1-.676.597 10.499 10.499 0 0 1-.707.528c-.079.054-.157.109-.238.162-.088.058-.18.115-.27.172-.115.07-.227.142-.346.212-.222.13-.453.252-.686.373l-.202.101c-.182.09-.366.177-.552.261l-.19.085c-.243.106-.49.208-.743.304l-.133.05a20.043 20.043 0 0 1-2.653.78c-.106.024-.21.048-.317.07a20.51 20.51 0 0 1-.389.077l-.3.057c-.28.049-.56.095-.843.134l-.12.016a26.05 26.05 0 0 1-.743.088c-.095.01-.19.02-.284.028-.16.015-.32.028-.48.04a25.33 25.33 0 0 1-.803.046c-.094.005-.188.01-.283.013-.145.004-.29.006-.435.008-.102.001-.203.004-.304.004-.156 0-.313-.002-.469-.005-.09 0-.182 0-.273-.003-.143-.004-.286-.01-.43-.017-.098-.005-.196-.007-.294-.013-.154-.008-.307-.02-.46-.031-.088-.006-.175-.01-.263-.018-.185-.016-.37-.035-.555-.054l-.162-.016a24.363 24.363 0 0 1-.712-.09l-.118-.02a23.14 23.14 0 0 1-.602-.094c-.085-.015-.168-.032-.252-.048-.154-.028-.308-.056-.46-.088-.08-.016-.159-.034-.239-.051a22.427 22.427 0 0 1-.502-.114l-.275-.07a23.94 23.94 0 0 1-.707-.193c-.237-.07-.472-.142-.705-.22l-.123-.04a18.773 18.773 0 0 1-1.103-.416 10.525 10.525 0 0 1-.245-.102c-.118-.05-.232-.103-.348-.156l-.226-.103c-.125-.06-.248-.123-.371-.185-.061-.031-.124-.061-.184-.093a15.678 15.678 0 0 1-.537-.295c-2.939-1.703-4.406-3.937-4.4-6.168l-.015 5.428c-.006 2.231 1.461 4.466 4.4 6.168.176.102.355.2.537.296" fill="#E2AE44"/><path d="M54.867 16.802c5.802-3.383 5.771-8.867-.067-12.25-5.84-3.382-15.276-3.382-21.078 0-5.8 3.383-5.77 8.867.07 12.25 5.839 3.382 15.275 3.382 21.075 0" fill="#FFD278"/><path d="M44.344 17.34c3.544 0 6.974-.815 9.411-2.236 2.055-1.198 3.233-2.722 3.23-4.181-.002-1.475-1.201-3.015-3.292-4.225-2.456-1.424-5.9-2.24-9.446-2.24-3.545 0-6.975.815-9.413 2.236-2.054 1.198-3.232 2.722-3.23 4.18.003 1.475 1.204 3.016 3.294 4.227 2.456 1.423 5.899 2.24 9.446 2.24" fill="#F4BD4E"/><path d="M34.834 6.695c2.438-1.422 5.868-2.237 9.413-2.237 3.546 0 6.99.816 9.447 2.24 1.934 1.12 3.104 2.523 3.27 3.895.013-.113.022-.225.022-.336-.003-1.474-1.202-3.015-3.292-4.225-2.457-1.424-5.9-2.24-9.447-2.24-3.545 0-6.975.815-9.413 2.236-2.054 1.198-3.232 2.722-3.23 4.18 0 .11.01.22.023.33.163-1.354 1.31-2.738 3.207-3.843" fill="#CC9636"/><path fill="#E2AE44" d="M38.494 6.672l-.003.991.766.444.003-.991z"/><path d="M41.016 8.778l.002-.003a.458.458 0 0 1 .099-.083c.01-.006.017-.013.028-.019a.885.885 0 0 1 .27-.102h.005a.702.702 0 0 1 .132-.01h.003a.73.73 0 0 1 .266.06c.014.005.026.008.04.014.055.022.116.048.182.08.018.007.037.017.055.025l.173.088.069.037c.082.044.17.092.264.147l.397.23.003-.99-.397-.231a10.497 10.497 0 0 0-.265-.147l-.068-.037a6.112 6.112 0 0 0-.173-.087 3.544 3.544 0 0 0-.228-.103l-.01-.003c-.014-.006-.025-.009-.04-.014a.9.9 0 0 0-.19-.053l-.04-.005a.871.871 0 0 0-.035-.002h-.006a.597.597 0 0 0-.13.01h-.005l-.005.001a.817.817 0 0 0-.094.023l-.014.007a.908.908 0 0 0-.168.078l-.016.012a.571.571 0 0 0-.058.043l-.01.007a.39.39 0 0 0-.033.035v.001a.186.186 0 0 0-.032.053v.002a.186.186 0 0 0-.011.053V7.9l-.003.99a.16.16 0 0 1 .011-.057v-.001a.21.21 0 0 1 .032-.054" fill="#CC9636"/><path fill="#E2AE44" d="M43.004 8.251l-.003.992 2.377-1.387.004-.991zm-3.368 2.862c.04.019.081.034.122.053.066.03.133.061.202.089l.042.013c.119.047.241.087.364.124.026.008.05.018.074.025l.012.003c.04.011.083.02.123.03.087.022.173.046.262.064l.053.011c.15.03.295.055.437.075l.01.002c.097.014.19.023.282.032.036.003.073.01.108.012h.005c.112.01.223.016.33.019h.118l.181-.001a4.689 4.689 0 0 0 .292-.018l.047-.003.195-.017h.01l.173-.017.06-.006.058-.006c.082-.01.167-.018.257-.028h.007l.29-.034.077-.01a87.981 87.981 0 0 0 .67-.083l.094-.012.38-.05c.11-.015.216-.027.318-.038l.109-.01.103-.01a3.453 3.453 0 0 1 .209-.012l.08-.002h.235a4.352 4.352 0 0 1 .222.018c.033.003.065.008.094.013l.033.006c.04.008.08.017.116.028.074.022.156.05.244.086l.036.015a5.329 5.329 0 0 1 .32.145c.071.034.145.072.222.112l.096.05c.11.06.224.122.344.192.215.124.338.24.367.35a.19.19 0 0 1 .007.05l.003-.99a.194.194 0 0 0-.007-.051c-.029-.11-.153-.226-.367-.35a12.574 12.574 0 0 0-.662-.354 5.08 5.08 0 0 0-.32-.145l-.036-.015-.008-.004a2.657 2.657 0 0 0-.237-.082l-.009-.003a1.885 1.885 0 0 0-.091-.023l-.015-.002-.033-.006-.055-.01-.038-.003a1.663 1.663 0 0 0-.053-.007l-.036-.003c-.016-.002-.034-.002-.05-.003a2.386 2.386 0 0 0-.085-.004l-.034-.002h-.042l-.16.001h-.044l-.033.002a6.811 6.811 0 0 0-.095.005c-.038.003-.076.004-.115.008l-.103.009-.071.005-.039.005a8.77 8.77 0 0 0-.318.038l-.38.05-.093.012-.348.044-.01.002-.308.037-.082.01-.287.033-.017.002c-.088.01-.17.019-.249.026l-.059.007-.233.022-.01.001-.195.017-.046.003a4.811 4.811 0 0 1-.473.018h-.09a5.741 5.741 0 0 1-.362-.018l-.109-.012a8.084 8.084 0 0 1-.728-.108c-.107-.022-.211-.05-.316-.076-.04-.01-.082-.019-.122-.03-.03-.008-.057-.02-.087-.028a4.738 4.738 0 0 1-.607-.226c-.04-.018-.082-.035-.122-.054a5.147 5.147 0 0 1-.358-.187c-.715-.414-1.074-.858-1.08-1.329l-.003.992c.006.47.366.914 1.08 1.327.116.068.236.13.358.189"/><path d="M50.346 12.828l.06-.06a2.902 2.902 0 0 0 .167-.177l.063-.072.019-.023c.034-.044.066-.088.094-.132.006-.007.01-.015.015-.023.02-.03.039-.06.056-.09.006-.01.01-.021.015-.031a1.41 1.41 0 0 0 .058-.124c.007-.017.017-.034.023-.051l.006-.02c.013-.035.021-.07.03-.104.005-.021.014-.043.018-.063.002-.006.001-.01.002-.016.006-.033.008-.065.011-.097.002-.023.008-.045.008-.068v-.028l.003-.99c0 .031-.005.063-.008.095-.003.033-.005.064-.011.096-.005.027-.013.053-.02.08a1.298 1.298 0 0 1-.03.103l-.03.072a1.649 1.649 0 0 1-.128.245l-.014.023a2.199 2.199 0 0 1-.268.328c-.024.026-.05.05-.076.075a2.934 2.934 0 0 1-.166.154 4.073 4.073 0 0 1-.197.161v.001l-.003.991a4.339 4.339 0 0 0 .248-.206l.055-.049m-1.426-.116l-.002.991.931.54.003-.992z" fill="#CC9636"/><path fill="#E2AE44" d="M49.852 13.251l-.003.991 1.094-.638.002-.99z"/><path d="M38.201 8.605c.006.471.366.915 1.08 1.329a5.2 5.2 0 0 0 1.613.6c.581.117 1.11.161 1.586.133.478-.027 1.305-.12 2.492-.278.706-.097 1.213-.099 1.519-.007.304.089.727.29 1.263.6.214.124.338.24.367.35.029.109-.035.209-.196.303a.71.71 0 0 1-.59.072c-.205-.061-.63-.278-1.274-.652l-.589-.34-2.377 1.386.47.272c1.065.617 2.05.911 2.953.883.904-.027 1.705-.209 2.403-.544l.93.54 1.095-.638-.9-.522c.703-.542 1.014-1.074.937-1.593-.078-.52-.544-1.026-1.397-1.52a5.744 5.744 0 0 0-1.561-.643 5.397 5.397 0 0 0-1.386-.157c-.414.017-1.11.093-2.082.234-1.143.163-1.864.242-2.16.24-.299 0-.636-.109-1.01-.325-.226-.132-.358-.25-.397-.359-.042-.108.01-.202.158-.287a.727.727 0 0 1 .546-.094c.186.045.49.188.912.433l.398.23 2.378-1.386a7.908 7.908 0 0 0-.428-.275 4.585 4.585 0 0 0-2.207-.643c-.766-.019-1.565.156-2.393.531l-.766-.443-1.094.637.766.444c-.712.523-1.061 1.02-1.059 1.49" fill="#FFD278"/><path d="M44.003 13.602c.11.056.22.109.327.157l.019.008c.088.04.175.077.262.11l.07.027a6.485 6.485 0 0 0 .359.124l.084.026.037.011c.05.015.098.024.147.037.063.016.126.033.189.046l.031.008a4.38 4.38 0 0 0 .292.051l.014.002c.078.01.155.02.232.026l.07.004.077.004c.028.001.057.004.085.004.073.002.145.002.217 0h.022l.034-.003c.133-.005.264-.014.392-.025l.059-.005c.016-.001.03-.004.046-.006.153-.016.304-.036.45-.062l.017-.003c.024-.004.047-.01.071-.015a6.161 6.161 0 0 0 .596-.148c.023-.007.046-.012.069-.02.015-.004.03-.01.045-.016.07-.023.14-.049.21-.075l.097-.037c.1-.04.199-.083.295-.129l.003-.991a5.064 5.064 0 0 1-.295.129l-.098.037a5.065 5.065 0 0 1-.919.259l-.088.018a6.484 6.484 0 0 1-.555.072c-.129.012-.26.02-.392.026-.019 0-.037.002-.056.003a3.84 3.84 0 0 1-.38-.008 4.414 4.414 0 0 1-.3-.03l-.015-.002a4.277 4.277 0 0 1-.324-.059c-.062-.013-.125-.03-.188-.046-.06-.016-.122-.03-.184-.048l-.084-.026a6.2 6.2 0 0 1-.258-.087l-.1-.037a7.295 7.295 0 0 1-.334-.136l-.017-.009a8.048 8.048 0 0 1-.418-.203 8.566 8.566 0 0 1-.352-.192l-.47-.272-.002.991.47.272c.118.069.235.132.35.192.03.016.061.03.09.046" fill="#E2AE44"/><path d="M54.867 17.5c2.888-1.764 4.33-4.072 4.33-6.383v-.052c0-.053-.005-.106-.007-.16l-.003.077a5.22 5.22 0 0 1-.016.226 6.23 6.23 0 0 1-.06.421 7.463 7.463 0 0 1-.094.416 5.273 5.273 0 0 1-.129.414 6.062 6.062 0 0 1-.635 1.279c-.034.053-.068.107-.104.16a7.354 7.354 0 0 1-.21.29c-.035.045-.066.09-.102.135l-.05.062c-.078.096-.16.191-.243.286l-.07.077c-.099.11-.202.218-.31.325l-.06.058a10.514 10.514 0 0 1-.91.781l-.22.167c-.083.06-.168.119-.253.177l-.238.162c-.088.058-.18.115-.27.172-.115.07-.227.142-.346.212-.222.13-.453.252-.686.373l-.202.101c-.182.09-.366.177-.552.261-.064.028-.126.058-.19.085-.243.106-.49.208-.743.304l-.133.049a18.984 18.984 0 0 1-1.59.515 22.69 22.69 0 0 1-.37.1l-.314.079c-.125.03-.253.06-.38.088-.105.023-.21.047-.316.069a20.51 20.51 0 0 1-.389.077l-.3.057c-.28.049-.56.095-.843.134l-.12.016a24.47 24.47 0 0 1-2.31.203l-.283.011c-.145.005-.29.007-.435.009-.101.001-.203.004-.304.004-.156 0-.313-.002-.469-.004l-.273-.004c-.143-.004-.286-.01-.43-.017-.098-.005-.196-.007-.294-.013-.154-.008-.307-.02-.46-.031-.088-.006-.175-.01-.263-.018-.185-.016-.37-.035-.555-.054l-.162-.016a24.363 24.363 0 0 1-.712-.09l-.118-.02a21.31 21.31 0 0 1-.602-.095 6.993 6.993 0 0 1-.252-.047c-.154-.028-.308-.056-.46-.088-.08-.016-.159-.034-.238-.051a24.666 24.666 0 0 1-.503-.114l-.275-.07a20.868 20.868 0 0 1-1.412-.413l-.123-.04a18.773 18.773 0 0 1-1.103-.415l-.245-.103c-.118-.05-.232-.103-.348-.156l-.226-.103c-.125-.06-.248-.123-.371-.186-.061-.03-.124-.06-.184-.092a15.678 15.678 0 0 1-.537-.295c-2.845-1.649-4.307-3.796-4.392-5.956-.09 2.4 1.372 4.822 4.392 6.654 5.839 3.541 15.275 3.541 21.075 0" fill="#BD8D2D"/></g></svg>