<svg width="40" height="46" xmlns="http://www.w3.org/2000/svg" xmlns:xlink="http://www.w3.org/1999/xlink"><defs><path id="a" d="M0 .296h36.457v17.082H0z"/><path id="c" d="M.019.212h36.438V21.15H.019z"/><path id="e" d="M0 .296h36.457v17.082H0z"/><path id="g" d="M.019.212h36.438V21.15H.019z"/><path id="i" d="M0 .296h36.457v17.082H0z"/><path id="k" d="M.019.212h36.438V21.15H.019z"/></defs><g fill="none" fill-rule="evenodd"><path d="M19.912 45.585h.003c5.46 0 10.746-1.242 14.502-3.407 3.166-1.826 4.981-4.149 4.978-6.372-.003-2.247-1.852-4.593-5.073-6.439-3.787-2.169-9.094-3.413-14.559-3.413-5.462 0-10.75 1.243-14.506 3.41C2.09 31.187.277 33.508.28 35.731c.003 2.248 1.853 4.595 5.076 6.44 3.785 2.169 9.091 3.412 14.556 3.413" fill="#BDCBD8"/><g transform="translate(1.6 25.704)"><mask id="b" fill="#fff"><use xlink:href="#a"/></mask><path d="M6.035 14.67c.074.04.15.075.225.112.15.076.3.152.454.224.091.043.184.083.276.125.14.064.281.127.425.188l.3.124c.098.04.193.081.292.12l.093.034c.316.122.636.239.963.349l.153.049c.283.093.57.18.86.264.048.015.094.031.143.045.055.016.112.029.168.044.183.05.367.098.551.145l.339.084c.203.049.408.093.613.138.077.016.153.035.23.05l.061.013c.187.038.375.072.563.106.103.018.205.04.307.057.248.042.497.08.747.116.042.007.084.015.127.02l.007.001c.289.041.58.078.871.11l.198.019c.226.024.452.047.679.066l.017.001c.1.008.202.013.303.02.187.014.375.028.563.038.121.007.242.01.364.015.174.008.347.016.521.02l.043.002c.099.003.198.002.296.003.19.003.378.006.567.006.124 0 .249-.004.374-.005.177-.003.355-.005.532-.01.032-.002.065-.001.098-.002.082-.003.163-.01.246-.013a29.517 29.517 0 0 0 1.569-.104c.068-.006.137-.01.205-.017l.143-.017c.303-.031.606-.067.907-.107l.148-.019c.345-.048.689-.103 1.03-.163l.096-.015c.091-.016.18-.036.271-.053.16-.03.318-.06.477-.093l.385-.083a29.04 29.04 0 0 0 .847-.203 27.921 27.921 0 0 0 .831-.227c.149-.043.297-.089.444-.135.064-.02.13-.037.194-.058l.136-.047c.267-.088.532-.18.792-.276.054-.02.109-.038.162-.059.309-.116.611-.239.91-.367l.23-.103a20.181 20.181 0 0 0 1.762-.889l.222-.13c.069-.041.132-.084.2-.126.111-.069.223-.138.33-.208.1-.064.195-.13.29-.194a14.264 14.264 0 0 0 .866-.64 12.415 12.415 0 0 0 .514-.434c.035-.031.074-.062.108-.093.07-.064.136-.13.204-.194l.074-.07c.132-.13.258-.26.38-.393l.084-.094c.103-.114.202-.23.296-.345l.063-.075.029-.035c.033-.042.062-.086.095-.129.088-.116.176-.232.257-.35.044-.064.085-.128.127-.193.07-.107.137-.213.2-.32.017-.03.037-.059.054-.088.025-.044.045-.088.069-.132a6.687 6.687 0 0 0 .248-.5c.041-.09.08-.181.117-.273.016-.04.036-.082.051-.123.014-.037.025-.074.037-.11.032-.088.06-.175.088-.262.024-.08.048-.16.07-.24.024-.086.045-.175.065-.263.01-.047.025-.095.035-.142.007-.032.01-.064.015-.097.017-.09.03-.18.043-.27.011-.08.022-.158.03-.238.01-.09.015-.182.02-.273.003-.053.01-.106.011-.16.002-.052.003-.105.003-.158l.019-6.562c0 .106-.008.212-.014.319a5.695 5.695 0 0 1-.05.51 5.303 5.303 0 0 1-.093.51 6.477 6.477 0 0 1-.536 1.5 7.046 7.046 0 0 1-.264.49 6.49 6.49 0 0 1-.2.32c-.041.065-.082.13-.126.194a9.073 9.073 0 0 1-.258.35c-.042.054-.08.109-.123.163l-.063.075a9.001 9.001 0 0 1-.38.44 12.65 12.65 0 0 1-.38.392l-.075.07a11.433 11.433 0 0 1-.575.515 13.894 13.894 0 0 1-.536.43 12.138 12.138 0 0 1-.58.415 11.639 11.639 0 0 1-.62.403c-.14.086-.277.172-.422.256-.273.157-.554.306-.838.451-.082.042-.166.082-.249.123-.221.108-.446.214-.675.315-.077.034-.154.07-.231.103-.298.129-.6.252-.908.368l-.164.059a23.378 23.378 0 0 1-1.943.623 26.525 26.525 0 0 1-2.162.498c-.122.023-.245.047-.368.068-.341.06-.684.116-1.03.163l-.147.02c-.302.04-.604.075-.908.107l-.347.033a30.26 30.26 0 0 1-1.567.104l-.347.015c-.177.005-.355.007-.532.01-.124.002-.249.005-.372.005a27.2 27.2 0 0 1-.572-.006c-.112-.002-.223-.001-.334-.004-.175-.005-.35-.013-.526-.02-.12-.006-.24-.009-.36-.016-.188-.01-.376-.024-.563-.037l-.32-.022a32.186 32.186 0 0 1-.679-.066l-.198-.019a30.981 30.981 0 0 1-.87-.11c-.05-.006-.097-.015-.145-.022a29.263 29.263 0 0 1-.737-.115c-.102-.017-.204-.038-.307-.057-.188-.034-.376-.068-.563-.106l-.291-.063c-.205-.044-.41-.089-.614-.138l-.337-.083a29.762 29.762 0 0 1-.864-.234 26.18 26.18 0 0 1-.86-.265c-.052-.017-.103-.032-.152-.05a22.844 22.844 0 0 1-1.347-.502c-.101-.041-.202-.081-.302-.124a21.474 21.474 0 0 1-.424-.188c-.092-.042-.185-.082-.276-.125-.154-.072-.304-.148-.455-.223l-.224-.112a17.456 17.456 0 0 1-.656-.358C1.805 5.694.01 2.993.018.296L0 6.858c-.008 2.696 1.786 5.397 5.379 7.455.215.123.434.242.656.358" fill="#0052F3" mask="url(#b)"/></g><g transform="translate(1.6 15.371)"><mask id="d" fill="#fff"><use xlink:href="#c"/></mask><path d="M31.162 18.084c7.092-4.089 7.054-10.718-.083-14.805-7.139-4.09-18.674-4.09-25.767 0-7.09 4.088-7.053 10.716.086 14.805 7.137 4.088 18.672 4.088 25.764 0" fill="#0B327D" mask="url(#d)"/></g><path d="M19.897 34.106h.002c4.33 0 8.524-.985 11.504-2.702 2.512-1.449 3.951-3.291 3.949-5.055-.002-1.782-1.47-3.644-4.025-5.108-3.004-1.72-7.213-2.707-11.548-2.707-4.333 0-8.528.986-11.508 2.704-2.511 1.448-3.95 3.29-3.948 5.052.003 1.783 1.47 3.646 4.027 5.11 3.003 1.72 7.212 2.706 11.547 2.706" fill="#0052F3"/><path d="M8.271 21.238c2.98-1.718 7.174-2.703 11.508-2.703 4.335 0 8.544.986 11.548 2.707 2.365 1.354 3.796 3.05 3.998 4.708a3.46 3.46 0 0 0 .027-.406c-.003-1.782-1.47-3.644-4.025-5.107-3.004-1.72-7.213-2.707-11.548-2.707-4.334 0-8.528.985-11.508 2.703-2.511 1.448-3.95 3.29-3.947 5.052 0 .133.01.267.027.4.2-1.637 1.6-3.31 3.92-4.647" fill="#002875"/><g transform="translate(1.6 18.323)"><mask id="f" fill="#fff"><use xlink:href="#e"/></mask><path d="M6.035 14.67c.074.04.15.075.225.112.15.076.3.152.454.224.091.043.184.083.276.125.14.064.281.127.425.188l.3.124c.098.04.193.081.292.12l.093.034c.316.122.636.239.963.349l.153.049c.283.093.57.18.86.264.048.015.094.031.143.045.055.016.112.029.168.044.183.05.367.098.551.145l.339.084c.203.049.408.093.613.138.077.016.153.035.23.05l.061.013c.187.038.375.072.563.106.103.018.205.04.307.057.248.042.497.08.747.116.042.007.084.015.127.02l.007.001c.289.041.58.078.871.11l.198.019c.226.024.452.047.679.066l.017.001c.1.008.202.013.303.02.187.014.375.028.563.038.121.007.242.01.364.015.174.008.347.016.521.02l.043.002c.099.003.198.002.296.003.19.003.378.006.567.006.124 0 .249-.004.374-.005.177-.003.355-.005.532-.01.032-.002.065-.001.098-.002.082-.003.163-.01.246-.013a29.517 29.517 0 0 0 1.569-.104c.068-.006.137-.01.205-.017l.143-.017c.303-.031.606-.067.907-.107l.148-.019c.345-.048.689-.103 1.03-.163l.096-.015c.091-.016.18-.036.271-.053.16-.03.318-.06.477-.093l.385-.083a29.04 29.04 0 0 0 .847-.203 27.921 27.921 0 0 0 .831-.227c.149-.043.297-.089.444-.135.064-.02.13-.037.194-.058l.136-.047c.267-.088.532-.18.792-.276.054-.02.109-.038.162-.059.309-.116.611-.239.91-.367l.23-.103a20.181 20.181 0 0 0 1.762-.889l.222-.13c.069-.041.132-.084.2-.126.111-.069.223-.138.33-.208.1-.064.195-.13.29-.194a14.264 14.264 0 0 0 .866-.64 12.415 12.415 0 0 0 .514-.434c.035-.031.074-.062.108-.093.07-.064.136-.13.204-.194l.074-.07c.132-.13.258-.26.38-.393l.084-.094c.103-.114.202-.23.296-.345l.063-.075.029-.035c.033-.042.062-.086.095-.129.088-.116.176-.232.257-.35.044-.064.085-.128.127-.193.07-.107.137-.213.2-.32.017-.03.037-.059.054-.088.025-.044.045-.088.069-.132a6.687 6.687 0 0 0 .248-.5c.041-.09.08-.181.117-.273.016-.04.036-.082.051-.123.014-.037.025-.074.037-.11.032-.088.06-.175.088-.262.024-.08.048-.16.07-.24.024-.086.045-.175.065-.263.01-.047.025-.095.035-.142.007-.032.01-.064.015-.097.017-.09.03-.18.043-.27.011-.08.022-.158.03-.238.01-.09.015-.182.02-.273.003-.053.01-.106.011-.16.002-.052.003-.105.003-.158l.019-6.562c0 .106-.008.212-.014.319a5.695 5.695 0 0 1-.05.51 5.303 5.303 0 0 1-.093.51 6.477 6.477 0 0 1-.536 1.5 7.046 7.046 0 0 1-.264.49 6.49 6.49 0 0 1-.2.32c-.041.065-.082.13-.126.194a9.073 9.073 0 0 1-.258.35c-.042.054-.08.109-.123.163l-.063.075a9.001 9.001 0 0 1-.38.44 12.65 12.65 0 0 1-.38.392l-.075.07a11.433 11.433 0 0 1-.575.515 13.894 13.894 0 0 1-.536.43 12.138 12.138 0 0 1-.58.415 11.639 11.639 0 0 1-.62.403c-.14.086-.277.172-.422.256-.273.157-.554.306-.838.451-.082.042-.166.082-.249.123-.221.108-.446.214-.675.315-.077.034-.154.07-.231.103-.298.129-.6.252-.908.368l-.164.059a23.378 23.378 0 0 1-1.943.623 26.525 26.525 0 0 1-2.162.498c-.122.023-.245.047-.368.068-.341.06-.684.116-1.03.163l-.147.02c-.302.04-.604.075-.908.107l-.347.033a30.26 30.26 0 0 1-1.567.104l-.347.015c-.177.005-.355.007-.532.01-.124.002-.249.005-.372.005a27.2 27.2 0 0 1-.572-.006c-.112-.002-.223-.001-.334-.004-.175-.005-.35-.013-.526-.02-.12-.006-.24-.009-.36-.016-.188-.01-.376-.024-.563-.037l-.32-.022a32.186 32.186 0 0 1-.679-.066l-.198-.019a30.981 30.981 0 0 1-.87-.11c-.05-.006-.097-.015-.145-.022a29.263 29.263 0 0 1-.737-.115c-.102-.017-.204-.038-.307-.057-.188-.034-.376-.068-.563-.106l-.291-.063c-.205-.044-.41-.089-.614-.138l-.337-.083a29.762 29.762 0 0 1-.864-.234 26.18 26.18 0 0 1-.86-.265c-.052-.017-.103-.032-.152-.05a22.844 22.844 0 0 1-1.347-.502c-.101-.041-.202-.081-.302-.124a21.474 21.474 0 0 1-.424-.188c-.092-.042-.185-.082-.276-.125-.154-.072-.304-.148-.455-.223l-.224-.112a17.456 17.456 0 0 1-.656-.358C1.805 5.694.01 2.993.018.296L0 6.858c-.008 2.696 1.786 5.397 5.379 7.455.215.123.434.242.656.358" fill="#0052F3" mask="url(#f)"/></g><g transform="translate(1.6 7.99)"><mask id="h" fill="#fff"><use xlink:href="#g"/></mask><path d="M31.162 18.084c7.092-4.089 7.054-10.718-.083-14.805-7.139-4.09-18.674-4.09-25.767 0-7.09 4.088-7.053 10.716.086 14.805 7.137 4.088 18.672 4.088 25.764 0" fill="#0B327D" mask="url(#h)"/></g><path d="M19.897 26.726h.002c4.33 0 8.524-.986 11.504-2.703 2.512-1.448 3.951-3.29 3.949-5.054-.002-1.783-1.47-3.644-4.025-5.108-3.004-1.72-7.213-2.707-11.548-2.707-4.333 0-8.528.985-11.508 2.704-2.511 1.447-3.95 3.289-3.948 5.052.003 1.783 1.47 3.645 4.027 5.109 3.003 1.72 7.212 2.706 11.547 2.707" fill="#0052F3"/><path d="M8.271 13.857c2.98-1.718 7.174-2.703 11.508-2.703 4.335 0 8.544.987 11.548 2.707 2.365 1.355 3.796 3.05 3.998 4.708.016-.135.027-.27.027-.406-.003-1.782-1.47-3.643-4.025-5.107-3.004-1.72-7.213-2.707-11.548-2.707-4.334 0-8.528.985-11.508 2.703-2.511 1.448-3.95 3.29-3.947 5.053 0 .133.01.266.027.4.2-1.637 1.6-3.31 3.92-4.648" fill="#002875"/><g><g transform="translate(1.6 10.943)"><mask id="j" fill="#fff"><use xlink:href="#i"/></mask><path d="M6.035 14.67c.074.04.15.075.225.112.15.076.3.152.454.224.091.043.184.083.276.125.14.064.281.127.425.188l.3.124c.098.04.193.081.292.12l.093.034c.316.122.636.239.963.349l.153.049c.283.093.57.18.86.264.048.015.094.031.143.045.055.016.112.029.168.044.183.05.367.098.551.145l.339.084c.203.049.408.093.613.138.077.016.153.035.23.05l.061.013c.187.038.375.072.563.106.103.018.205.04.307.057.248.042.497.08.747.116.042.007.084.015.127.02l.007.001c.289.041.58.078.871.11l.198.019c.226.024.452.047.679.066l.017.001c.1.008.202.013.303.02.187.014.375.028.563.038.121.007.242.01.364.015.174.008.347.016.521.02l.043.002c.099.003.198.002.296.003.19.003.378.006.567.006.124 0 .249-.004.374-.005.177-.003.355-.005.532-.01.032-.002.065-.001.098-.002.082-.003.163-.01.246-.013a29.517 29.517 0 0 0 1.569-.104c.068-.006.137-.01.205-.017l.143-.017c.303-.031.606-.067.907-.107l.148-.019c.345-.048.689-.103 1.03-.163l.096-.015c.091-.016.18-.036.271-.053.16-.03.318-.06.477-.093l.385-.083a29.04 29.04 0 0 0 .847-.203 27.921 27.921 0 0 0 .831-.227c.149-.043.297-.089.444-.135.064-.02.13-.037.194-.058l.136-.047c.267-.088.532-.18.792-.276.054-.02.109-.038.162-.059.309-.116.611-.239.91-.367l.23-.103a20.181 20.181 0 0 0 1.762-.889l.222-.13c.069-.041.132-.084.2-.126.111-.069.223-.138.33-.208.1-.064.195-.13.29-.194a14.264 14.264 0 0 0 .866-.64 12.415 12.415 0 0 0 .514-.434c.035-.031.074-.062.108-.093.07-.064.136-.13.204-.194l.074-.07c.132-.13.258-.26.38-.393l.084-.094c.103-.114.202-.23.296-.345l.063-.075.029-.035c.033-.042.062-.086.095-.129.088-.116.176-.232.257-.35.044-.064.085-.128.127-.193.07-.107.137-.213.2-.32.017-.03.037-.059.054-.088.025-.044.045-.088.069-.132a6.687 6.687 0 0 0 .248-.5c.041-.09.08-.181.117-.273.016-.04.036-.082.051-.123.014-.037.025-.074.037-.11.032-.088.06-.175.088-.262.024-.08.048-.16.07-.24.024-.086.045-.175.065-.263.01-.047.025-.095.035-.142.007-.032.01-.064.015-.097.017-.09.03-.18.043-.27.011-.08.022-.158.03-.238.01-.09.015-.182.02-.273.003-.053.01-.106.011-.16.002-.052.003-.105.003-.158l.019-6.562c0 .106-.008.212-.014.319a5.695 5.695 0 0 1-.05.51 5.303 5.303 0 0 1-.093.51 6.477 6.477 0 0 1-.536 1.5 7.046 7.046 0 0 1-.264.49 6.49 6.49 0 0 1-.2.32c-.041.065-.082.13-.126.194a9.073 9.073 0 0 1-.258.35c-.042.054-.08.109-.123.163l-.063.075a9.001 9.001 0 0 1-.38.44 12.65 12.65 0 0 1-.38.392l-.075.07a11.433 11.433 0 0 1-.575.515 13.894 13.894 0 0 1-.536.43 12.138 12.138 0 0 1-.58.415 11.639 11.639 0 0 1-.62.403c-.14.086-.277.172-.422.256-.273.157-.554.306-.838.451-.082.042-.166.082-.249.123-.221.108-.446.214-.675.315-.077.034-.154.07-.231.103-.298.129-.6.252-.908.368l-.164.059a23.378 23.378 0 0 1-1.943.623 26.525 26.525 0 0 1-2.162.498c-.122.023-.245.047-.368.068-.341.06-.684.116-1.03.163l-.147.02c-.302.04-.604.075-.908.107l-.347.033a30.26 30.26 0 0 1-1.567.104l-.347.015c-.177.005-.355.007-.532.01-.124.002-.249.005-.372.005a27.2 27.2 0 0 1-.572-.006c-.112-.002-.223-.001-.334-.004-.175-.005-.35-.013-.526-.02-.12-.006-.24-.009-.36-.016-.188-.01-.376-.024-.563-.037l-.32-.022a32.186 32.186 0 0 1-.679-.066l-.198-.019a30.981 30.981 0 0 1-.87-.11c-.05-.006-.097-.015-.145-.022a29.263 29.263 0 0 1-.737-.115c-.102-.017-.204-.038-.307-.057-.188-.034-.376-.068-.563-.106l-.291-.063c-.205-.044-.41-.089-.614-.138l-.337-.083a29.762 29.762 0 0 1-.864-.234 26.18 26.18 0 0 1-.86-.265c-.052-.017-.103-.032-.152-.05a22.844 22.844 0 0 1-1.347-.502c-.101-.041-.202-.081-.302-.124a21.474 21.474 0 0 1-.424-.188c-.092-.042-.185-.082-.276-.125-.154-.072-.304-.148-.455-.223l-.224-.112a17.456 17.456 0 0 1-.656-.358C1.805 5.694.01 2.993.018.296L0 6.858c-.008 2.696 1.786 5.397 5.379 7.455.215.123.434.242.656.358" fill="#0052F3" mask="url(#j)"/></g><g transform="translate(1.6 .61)"><mask id="l" fill="#fff"><use xlink:href="#k"/></mask><path d="M31.162 18.084c7.092-4.089 7.054-10.718-.083-14.805-7.139-4.09-18.674-4.09-25.767 0-7.09 4.088-7.053 10.716.086 14.805 7.137 4.088 18.672 4.088 25.764 0" fill="#5790FF" mask="url(#l)"/></g><path d="M19.897 19.345h.002c4.33 0 8.524-.985 11.504-2.702 2.512-1.449 3.951-3.291 3.949-5.055-.002-1.782-1.47-3.644-4.025-5.108-3.004-1.72-7.213-2.707-11.548-2.707-4.333 0-8.528.986-11.508 2.704-2.511 1.448-3.95 3.29-3.948 5.052.003 1.783 1.47 3.645 4.027 5.11 3.003 1.72 7.212 2.706 11.547 2.706" fill="#0052F3"/><path d="M8.271 6.477c2.98-1.718 7.174-2.704 11.508-2.704 4.335 0 8.544.987 11.548 2.708 2.365 1.354 3.796 3.05 3.998 4.708.016-.136.027-.271.027-.406-.003-1.782-1.47-3.644-4.025-5.107-3.004-1.72-7.213-2.708-11.548-2.708-4.334 0-8.528.986-11.508 2.704-2.511 1.448-3.95 3.29-3.947 5.052 0 .133.01.266.027.4.2-1.637 1.6-3.31 3.92-4.647" fill="#002875"/></g></g></svg>